<mxfile host="app.diagrams.net" agent="Mozilla/5.0 (Windows NT 10.0; Win64; x64) AppleWebKit/537.36 (KHTML, like Gecko) Chrome/131.0.0.0 Safari/537.36" version="26.0.2">
  <diagram name="Page-1" id="c7558073-3199-34d8-9f00-42111426c3f3">
    <mxGraphModel dx="794" dy="420" grid="1" gridSize="10" guides="1" tooltips="1" connect="1" arrows="1" fold="1" page="1" pageScale="1" pageWidth="826" pageHeight="1169" background="none" math="0" shadow="0">
      <root>
        <mxCell id="0" />
        <mxCell id="1" parent="0" />
        <mxCell id="2itdBHA8XBrskZSb1EVl-98" value="" style="edgeStyle=orthogonalEdgeStyle;rounded=0;orthogonalLoop=1;jettySize=auto;html=1;" edge="1" parent="1" source="2itdBHA8XBrskZSb1EVl-118" target="2itdBHA8XBrskZSb1EVl-97">
          <mxGeometry relative="1" as="geometry">
            <mxPoint x="400" y="156" as="sourcePoint" />
          </mxGeometry>
        </mxCell>
        <mxCell id="2itdBHA8XBrskZSb1EVl-102" value="" style="edgeStyle=orthogonalEdgeStyle;rounded=0;orthogonalLoop=1;jettySize=auto;html=1;" edge="1" parent="1" source="2itdBHA8XBrskZSb1EVl-97" target="2itdBHA8XBrskZSb1EVl-101">
          <mxGeometry relative="1" as="geometry" />
        </mxCell>
        <mxCell id="2itdBHA8XBrskZSb1EVl-97" value="Load balancer" style="whiteSpace=wrap;html=1;rounded=1;" vertex="1" parent="1">
          <mxGeometry x="340" y="108" width="120" height="60" as="geometry" />
        </mxCell>
        <mxCell id="2itdBHA8XBrskZSb1EVl-99" value="Indentity and Access management" style="whiteSpace=wrap;html=1;rounded=1;" vertex="1" parent="1">
          <mxGeometry x="140" y="248" width="120" height="60" as="geometry" />
        </mxCell>
        <mxCell id="2itdBHA8XBrskZSb1EVl-104" value="" style="edgeStyle=orthogonalEdgeStyle;rounded=0;orthogonalLoop=1;jettySize=auto;html=1;" edge="1" parent="1" source="2itdBHA8XBrskZSb1EVl-101">
          <mxGeometry relative="1" as="geometry">
            <mxPoint x="260" y="278" as="targetPoint" />
          </mxGeometry>
        </mxCell>
        <mxCell id="2itdBHA8XBrskZSb1EVl-108" value="" style="edgeStyle=orthogonalEdgeStyle;rounded=0;orthogonalLoop=1;jettySize=auto;html=1;" edge="1" parent="1" source="2itdBHA8XBrskZSb1EVl-101" target="2itdBHA8XBrskZSb1EVl-107">
          <mxGeometry relative="1" as="geometry" />
        </mxCell>
        <mxCell id="2itdBHA8XBrskZSb1EVl-129" value="" style="edgeStyle=orthogonalEdgeStyle;rounded=0;orthogonalLoop=1;jettySize=auto;html=1;" edge="1" parent="1" source="2itdBHA8XBrskZSb1EVl-101" target="2itdBHA8XBrskZSb1EVl-128">
          <mxGeometry relative="1" as="geometry" />
        </mxCell>
        <mxCell id="2itdBHA8XBrskZSb1EVl-101" value="API Request" style="whiteSpace=wrap;html=1;rounded=1;" vertex="1" parent="1">
          <mxGeometry x="340" y="248" width="120" height="60" as="geometry" />
        </mxCell>
        <mxCell id="2itdBHA8XBrskZSb1EVl-107" value="&lt;table&gt;&lt;tbody&gt;&lt;tr&gt;&lt;/tr&gt;&lt;/tbody&gt;&lt;/table&gt;&lt;table&gt;&lt;tbody&gt;&lt;tr&gt;&lt;td&gt;&lt;br&gt;&lt;/td&gt;&lt;td&gt;&lt;br&gt;&lt;/td&gt;&lt;/tr&gt;&lt;tr&gt;&lt;td&gt;&lt;br&gt;&lt;/td&gt;&lt;td&gt;&lt;br&gt;&lt;/td&gt;&lt;/tr&gt;&lt;/tbody&gt;&lt;/table&gt;&lt;br&gt;&lt;br&gt;&lt;div&gt;&lt;br/&gt;&lt;/div&gt;" style="whiteSpace=wrap;html=1;rounded=1;" vertex="1" parent="1">
          <mxGeometry x="540" y="168" width="190" height="200" as="geometry" />
        </mxCell>
        <mxCell id="2itdBHA8XBrskZSb1EVl-109" value="" style="rounded=1;whiteSpace=wrap;html=1;" vertex="1" parent="1">
          <mxGeometry x="560" y="178" width="150" height="80" as="geometry" />
        </mxCell>
        <mxCell id="2itdBHA8XBrskZSb1EVl-110" value="" style="rounded=1;whiteSpace=wrap;html=1;" vertex="1" parent="1">
          <mxGeometry x="560" y="278" width="150" height="80" as="geometry" />
        </mxCell>
        <mxCell id="2itdBHA8XBrskZSb1EVl-116" value="" style="edgeStyle=orthogonalEdgeStyle;rounded=0;orthogonalLoop=1;jettySize=auto;html=1;" edge="1" parent="1" source="2itdBHA8XBrskZSb1EVl-111" target="2itdBHA8XBrskZSb1EVl-115">
          <mxGeometry relative="1" as="geometry" />
        </mxCell>
        <mxCell id="2itdBHA8XBrskZSb1EVl-111" value="Data Service" style="rounded=1;whiteSpace=wrap;html=1;" vertex="1" parent="1">
          <mxGeometry x="570" y="205.5" width="70" height="35" as="geometry" />
        </mxCell>
        <mxCell id="2itdBHA8XBrskZSb1EVl-112" value="Sec Storage" style="shape=cylinder3;whiteSpace=wrap;html=1;boundedLbl=1;backgroundOutline=1;size=15;" vertex="1" parent="1">
          <mxGeometry x="660" y="193" width="40" height="55" as="geometry" />
        </mxCell>
        <mxCell id="2itdBHA8XBrskZSb1EVl-115" value="Data Service" style="rounded=1;whiteSpace=wrap;html=1;" vertex="1" parent="1">
          <mxGeometry x="570" y="300.5" width="70" height="35" as="geometry" />
        </mxCell>
        <mxCell id="2itdBHA8XBrskZSb1EVl-117" value="Primary Storage" style="shape=cylinder3;whiteSpace=wrap;html=1;boundedLbl=1;backgroundOutline=1;size=15;" vertex="1" parent="1">
          <mxGeometry x="663" y="287" width="40" height="55" as="geometry" />
        </mxCell>
        <mxCell id="2itdBHA8XBrskZSb1EVl-118" value="" style="shape=umlActor;verticalLabelPosition=bottom;verticalAlign=top;html=1;outlineConnect=0;" vertex="1" parent="1">
          <mxGeometry x="387" y="10" width="25" height="40" as="geometry" />
        </mxCell>
        <mxCell id="2itdBHA8XBrskZSb1EVl-120" value="HTTP PUT (Create Object)" style="text;html=1;align=center;verticalAlign=middle;whiteSpace=wrap;rounded=0;" vertex="1" parent="1">
          <mxGeometry x="413" y="57" width="87" height="30" as="geometry" />
        </mxCell>
        <mxCell id="2itdBHA8XBrskZSb1EVl-121" value="HTTP PUT (Create Bucket)" style="text;html=1;align=center;verticalAlign=middle;whiteSpace=wrap;rounded=0;" vertex="1" parent="1">
          <mxGeometry x="300" y="57" width="87" height="30" as="geometry" />
        </mxCell>
        <mxCell id="2itdBHA8XBrskZSb1EVl-122" value="Identity Validation &amp;amp; Authorization" style="text;html=1;align=center;verticalAlign=middle;whiteSpace=wrap;rounded=0;" vertex="1" parent="1">
          <mxGeometry x="260" y="240.5" width="87" height="30" as="geometry" />
        </mxCell>
        <mxCell id="2itdBHA8XBrskZSb1EVl-124" value="&lt;h1 style=&quot;margin-top: 0px;&quot;&gt;S3 Bucket Design&lt;/h1&gt;" style="text;html=1;whiteSpace=wrap;overflow=hidden;rounded=0;" vertex="1" parent="1">
          <mxGeometry x="550" width="180" height="70" as="geometry" />
        </mxCell>
        <mxCell id="2itdBHA8XBrskZSb1EVl-125" value="Upload Object" style="text;html=1;align=center;verticalAlign=middle;whiteSpace=wrap;rounded=0;" vertex="1" parent="1">
          <mxGeometry x="457" y="242" width="87" height="30" as="geometry" />
        </mxCell>
        <mxCell id="2itdBHA8XBrskZSb1EVl-128" value="" style="whiteSpace=wrap;html=1;rounded=1;arcSize=23;" vertex="1" parent="1">
          <mxGeometry x="290" y="388" width="220" height="112" as="geometry" />
        </mxCell>
        <mxCell id="2itdBHA8XBrskZSb1EVl-130" value="Metadata Store" style="text;html=1;align=center;verticalAlign=middle;whiteSpace=wrap;rounded=0;" vertex="1" parent="1">
          <mxGeometry x="356" y="510" width="87" height="30" as="geometry" />
        </mxCell>
        <mxCell id="2itdBHA8XBrskZSb1EVl-131" value="Metadata Service" style="rounded=1;whiteSpace=wrap;html=1;" vertex="1" parent="1">
          <mxGeometry x="340" y="400" width="120" height="40" as="geometry" />
        </mxCell>
        <mxCell id="2itdBHA8XBrskZSb1EVl-132" value="Meta DB" style="shape=cylinder3;whiteSpace=wrap;html=1;boundedLbl=1;backgroundOutline=1;size=15;" vertex="1" parent="1">
          <mxGeometry x="374.5" y="450" width="50" height="50" as="geometry" />
        </mxCell>
        <mxCell id="2itdBHA8XBrskZSb1EVl-133" value="Create Bucket Metadata" style="text;html=1;align=center;verticalAlign=middle;whiteSpace=wrap;rounded=0;" vertex="1" parent="1">
          <mxGeometry x="300" y="335.5" width="87" height="30" as="geometry" />
        </mxCell>
        <mxCell id="2itdBHA8XBrskZSb1EVl-134" value="Create Object Metadata" style="text;html=1;align=center;verticalAlign=middle;whiteSpace=wrap;rounded=0;" vertex="1" parent="1">
          <mxGeometry x="412" y="335.5" width="87" height="30" as="geometry" />
        </mxCell>
      </root>
    </mxGraphModel>
  </diagram>
</mxfile>
